G04 #@! TF.GenerationSoftware,KiCad,Pcbnew,9.0.4*
G04 #@! TF.CreationDate,2025-10-14T04:28:11+05:30*
G04 #@! TF.ProjectId,Buck converter,4275636b-2063-46f6-9e76-65727465722e,rev?*
G04 #@! TF.SameCoordinates,Original*
G04 #@! TF.FileFunction,Copper,L1,Top*
G04 #@! TF.FilePolarity,Positive*
%FSLAX46Y46*%
G04 Gerber Fmt 4.6, Leading zero omitted, Abs format (unit mm)*
G04 Created by KiCad (PCBNEW 9.0.4) date 2025-10-14 04:28:11*
%MOMM*%
%LPD*%
G01*
G04 APERTURE LIST*
G04 Aperture macros list*
%AMRoundRect*
0 Rectangle with rounded corners*
0 $1 Rounding radius*
0 $2 $3 $4 $5 $6 $7 $8 $9 X,Y pos of 4 corners*
0 Add a 4 corners polygon primitive as box body*
4,1,4,$2,$3,$4,$5,$6,$7,$8,$9,$2,$3,0*
0 Add four circle primitives for the rounded corners*
1,1,$1+$1,$2,$3*
1,1,$1+$1,$4,$5*
1,1,$1+$1,$6,$7*
1,1,$1+$1,$8,$9*
0 Add four rect primitives between the rounded corners*
20,1,$1+$1,$2,$3,$4,$5,0*
20,1,$1+$1,$4,$5,$6,$7,0*
20,1,$1+$1,$6,$7,$8,$9,0*
20,1,$1+$1,$8,$9,$2,$3,0*%
G04 Aperture macros list end*
G04 #@! TA.AperFunction,ComponentPad*
%ADD10R,2.030000X1.730000*%
G04 #@! TD*
G04 #@! TA.AperFunction,ComponentPad*
%ADD11O,2.030000X1.730000*%
G04 #@! TD*
G04 #@! TA.AperFunction,ComponentPad*
%ADD12C,2.200000*%
G04 #@! TD*
G04 #@! TA.AperFunction,ComponentPad*
%ADD13C,1.600000*%
G04 #@! TD*
G04 #@! TA.AperFunction,SMDPad,CuDef*
%ADD14RoundRect,0.150000X0.200000X-0.150000X0.200000X0.150000X-0.200000X0.150000X-0.200000X-0.150000X0*%
G04 #@! TD*
G04 #@! TA.AperFunction,ComponentPad*
%ADD15R,2.070000X2.070000*%
G04 #@! TD*
G04 #@! TA.AperFunction,ComponentPad*
%ADD16C,2.070000*%
G04 #@! TD*
G04 #@! TA.AperFunction,Conductor*
%ADD17C,0.200000*%
G04 #@! TD*
G04 #@! TA.AperFunction,Conductor*
%ADD18C,0.400000*%
G04 #@! TD*
G04 APERTURE END LIST*
D10*
X83500000Y-74920000D03*
D11*
X83500000Y-77460000D03*
X83500000Y-80000000D03*
D12*
X81560000Y-68650000D03*
X101880000Y-68650000D03*
D13*
X101500000Y-74685000D03*
X101500000Y-79765000D03*
X97500000Y-73500000D03*
X97500000Y-81000000D03*
D14*
X95000000Y-74600000D03*
X95000000Y-76000000D03*
D15*
X91000000Y-80080000D03*
D16*
X91000000Y-77540000D03*
X91000000Y-75000000D03*
D17*
X101500000Y-69030000D02*
X101880000Y-68650000D01*
X101500000Y-74685000D02*
X101500000Y-69030000D01*
X84650000Y-68650000D02*
X81560000Y-68650000D01*
X91000000Y-75000000D02*
X84650000Y-68650000D01*
D18*
X91000000Y-77540000D02*
X89040000Y-77540000D01*
X89040000Y-77540000D02*
X86420000Y-74920000D01*
X86420000Y-74920000D02*
X83500000Y-74920000D01*
D17*
X91000000Y-80080000D02*
X86120000Y-80080000D01*
X86120000Y-80080000D02*
X83500000Y-77460000D01*
X100315000Y-73500000D02*
X101500000Y-74685000D01*
X97500000Y-73500000D02*
X100315000Y-73500000D01*
X94600000Y-75000000D02*
X95000000Y-74600000D01*
X91000000Y-75000000D02*
X94600000Y-75000000D01*
G04 #@! TA.AperFunction,Conductor*
G36*
X104442539Y-65020185D02*
G01*
X104488294Y-65072989D01*
X104499500Y-65124500D01*
X104499500Y-84375500D01*
X104479815Y-84442539D01*
X104427011Y-84488294D01*
X104375500Y-84499500D01*
X78624500Y-84499500D01*
X78557461Y-84479815D01*
X78511706Y-84427011D01*
X78500500Y-84375500D01*
X78500500Y-68524038D01*
X79959500Y-68524038D01*
X79959500Y-68775961D01*
X79998910Y-69024785D01*
X80076760Y-69264383D01*
X80191132Y-69488848D01*
X80339201Y-69692649D01*
X80339205Y-69692654D01*
X80517345Y-69870794D01*
X80517350Y-69870798D01*
X80604531Y-69934138D01*
X80721155Y-70018870D01*
X80864184Y-70091747D01*
X80945616Y-70133239D01*
X80945618Y-70133239D01*
X80945621Y-70133241D01*
X81185215Y-70211090D01*
X81434038Y-70250500D01*
X81434039Y-70250500D01*
X81685961Y-70250500D01*
X81685962Y-70250500D01*
X81934785Y-70211090D01*
X82174379Y-70133241D01*
X82398845Y-70018870D01*
X82602656Y-69870793D01*
X82780793Y-69692656D01*
X82928870Y-69488845D01*
X83015815Y-69318204D01*
X83063789Y-69267409D01*
X83126300Y-69250500D01*
X84349903Y-69250500D01*
X84416942Y-69270185D01*
X84437584Y-69286819D01*
X89519424Y-74368659D01*
X89552909Y-74429982D01*
X89549674Y-74494658D01*
X89502309Y-74640431D01*
X89502309Y-74640434D01*
X89464500Y-74879148D01*
X89464500Y-75120851D01*
X89502308Y-75359564D01*
X89576997Y-75589431D01*
X89652457Y-75737528D01*
X89682905Y-75797284D01*
X89686725Y-75804780D01*
X89828780Y-76000304D01*
X89828784Y-76000309D01*
X89828786Y-76000311D01*
X89999689Y-76171214D01*
X89999692Y-76171216D01*
X90003394Y-76174378D01*
X90002243Y-76175725D01*
X90040250Y-76225022D01*
X90046223Y-76294636D01*
X90013612Y-76356428D01*
X90003227Y-76365426D01*
X90003394Y-76365622D01*
X89999686Y-76368788D01*
X89828784Y-76539690D01*
X89828780Y-76539695D01*
X89686723Y-76735221D01*
X89668089Y-76771794D01*
X89657639Y-76782858D01*
X89651317Y-76796703D01*
X89634137Y-76807743D01*
X89620115Y-76822591D01*
X89604433Y-76826832D01*
X89592539Y-76834477D01*
X89557604Y-76839500D01*
X89381519Y-76839500D01*
X89314480Y-76819815D01*
X89293838Y-76803181D01*
X86866546Y-74375888D01*
X86866545Y-74375887D01*
X86751807Y-74299222D01*
X86624332Y-74246421D01*
X86624322Y-74246418D01*
X86488996Y-74219500D01*
X86488994Y-74219500D01*
X86488993Y-74219500D01*
X85139499Y-74219500D01*
X85072460Y-74199815D01*
X85026705Y-74147011D01*
X85015499Y-74095500D01*
X85015499Y-74007129D01*
X85015498Y-74007123D01*
X85015497Y-74007116D01*
X85009091Y-73947517D01*
X85003273Y-73931919D01*
X84958797Y-73812671D01*
X84958793Y-73812664D01*
X84872547Y-73697455D01*
X84872544Y-73697452D01*
X84757335Y-73611206D01*
X84757328Y-73611202D01*
X84622482Y-73560908D01*
X84622483Y-73560908D01*
X84562883Y-73554501D01*
X84562881Y-73554500D01*
X84562873Y-73554500D01*
X84562864Y-73554500D01*
X82437129Y-73554500D01*
X82437123Y-73554501D01*
X82377516Y-73560908D01*
X82242671Y-73611202D01*
X82242664Y-73611206D01*
X82127455Y-73697452D01*
X82127452Y-73697455D01*
X82041206Y-73812664D01*
X82041202Y-73812671D01*
X81990908Y-73947517D01*
X81985299Y-73999695D01*
X81984501Y-74007123D01*
X81984500Y-74007135D01*
X81984500Y-75832870D01*
X81984501Y-75832876D01*
X81990908Y-75892483D01*
X82041202Y-76027328D01*
X82041206Y-76027335D01*
X82127452Y-76142544D01*
X82127455Y-76142547D01*
X82242664Y-76228793D01*
X82242673Y-76228798D01*
X82306185Y-76252486D01*
X82358632Y-76272047D01*
X82414566Y-76313917D01*
X82438984Y-76379381D01*
X82424133Y-76447654D01*
X82402982Y-76475910D01*
X82308454Y-76570438D01*
X82182120Y-76744321D01*
X82084541Y-76935829D01*
X82084540Y-76935832D01*
X82018124Y-77140240D01*
X82018124Y-77140243D01*
X81984500Y-77352534D01*
X81984500Y-77567465D01*
X82018124Y-77779756D01*
X82018124Y-77779759D01*
X82084540Y-77984167D01*
X82084541Y-77984170D01*
X82182120Y-78175678D01*
X82308455Y-78349563D01*
X82460437Y-78501545D01*
X82460440Y-78501547D01*
X82637226Y-78629990D01*
X82679892Y-78685320D01*
X82685871Y-78754933D01*
X82653265Y-78816728D01*
X82637227Y-78830626D01*
X82460760Y-78958838D01*
X82460759Y-78958838D01*
X82308838Y-79110759D01*
X82182547Y-79284583D01*
X82085003Y-79476024D01*
X82018610Y-79680364D01*
X82007581Y-79750000D01*
X83055440Y-79750000D01*
X83024755Y-79803147D01*
X82990000Y-79932857D01*
X82990000Y-80067143D01*
X83024755Y-80196853D01*
X83055440Y-80250000D01*
X82007581Y-80250000D01*
X82018610Y-80319635D01*
X82085003Y-80523975D01*
X82182547Y-80715416D01*
X82308838Y-80889240D01*
X82460759Y-81041161D01*
X82634583Y-81167452D01*
X82826024Y-81264996D01*
X83030358Y-81331388D01*
X83242573Y-81365000D01*
X83250000Y-81365000D01*
X83250000Y-80444560D01*
X83303147Y-80475245D01*
X83432857Y-80510000D01*
X83567143Y-80510000D01*
X83696853Y-80475245D01*
X83750000Y-80444560D01*
X83750000Y-81365000D01*
X83757427Y-81365000D01*
X83969639Y-81331388D01*
X83969642Y-81331388D01*
X84173975Y-81264996D01*
X84365416Y-81167452D01*
X84539240Y-81041161D01*
X84691161Y-80889240D01*
X84817452Y-80715416D01*
X84914996Y-80523975D01*
X84981389Y-80319635D01*
X84992419Y-80250000D01*
X83944560Y-80250000D01*
X83975245Y-80196853D01*
X84010000Y-80067143D01*
X84010000Y-79932857D01*
X83975245Y-79803147D01*
X83944560Y-79750000D01*
X84889402Y-79750000D01*
X84956441Y-79769685D01*
X84977083Y-79786319D01*
X85751284Y-80560520D01*
X85751286Y-80560521D01*
X85751290Y-80560524D01*
X85866880Y-80627259D01*
X85888216Y-80639577D01*
X86040943Y-80680501D01*
X86040945Y-80680501D01*
X86206654Y-80680501D01*
X86206670Y-80680500D01*
X89340501Y-80680500D01*
X89407540Y-80700185D01*
X89453295Y-80752989D01*
X89464501Y-80804500D01*
X89464501Y-81162876D01*
X89470908Y-81222483D01*
X89521202Y-81357328D01*
X89521206Y-81357335D01*
X89607452Y-81472544D01*
X89607455Y-81472547D01*
X89722664Y-81558793D01*
X89722671Y-81558797D01*
X89857517Y-81609091D01*
X89857516Y-81609091D01*
X89864444Y-81609835D01*
X89917127Y-81615500D01*
X92082872Y-81615499D01*
X92142483Y-81609091D01*
X92277331Y-81558796D01*
X92392546Y-81472546D01*
X92478796Y-81357331D01*
X92529091Y-81222483D01*
X92535500Y-81162873D01*
X92535500Y-80897682D01*
X96200000Y-80897682D01*
X96200000Y-81102317D01*
X96232009Y-81304417D01*
X96295244Y-81499031D01*
X96388141Y-81681350D01*
X96388147Y-81681359D01*
X96420523Y-81725921D01*
X96420524Y-81725922D01*
X97100000Y-81046446D01*
X97100000Y-81052661D01*
X97127259Y-81154394D01*
X97179920Y-81245606D01*
X97254394Y-81320080D01*
X97345606Y-81372741D01*
X97447339Y-81400000D01*
X97453553Y-81400000D01*
X96774076Y-82079474D01*
X96818650Y-82111859D01*
X97000968Y-82204755D01*
X97195582Y-82267990D01*
X97397683Y-82300000D01*
X97602317Y-82300000D01*
X97804417Y-82267990D01*
X97999031Y-82204755D01*
X98181349Y-82111859D01*
X98225921Y-82079474D01*
X97546447Y-81400000D01*
X97552661Y-81400000D01*
X97654394Y-81372741D01*
X97745606Y-81320080D01*
X97820080Y-81245606D01*
X97872741Y-81154394D01*
X97900000Y-81052661D01*
X97900000Y-81046448D01*
X98579474Y-81725922D01*
X98579474Y-81725921D01*
X98611859Y-81681349D01*
X98704755Y-81499031D01*
X98767990Y-81304417D01*
X98800000Y-81102317D01*
X98800000Y-80897682D01*
X98787160Y-80816613D01*
X98767990Y-80695582D01*
X98704755Y-80500968D01*
X98611859Y-80318650D01*
X98579474Y-80274077D01*
X98579474Y-80274076D01*
X97900000Y-80953551D01*
X97900000Y-80947339D01*
X97872741Y-80845606D01*
X97820080Y-80754394D01*
X97745606Y-80679920D01*
X97654394Y-80627259D01*
X97552661Y-80600000D01*
X97546446Y-80600000D01*
X98225922Y-79920524D01*
X98225921Y-79920523D01*
X98181359Y-79888147D01*
X98181350Y-79888141D01*
X97999031Y-79795244D01*
X97939024Y-79775747D01*
X97804417Y-79732009D01*
X97602317Y-79700000D01*
X97397683Y-79700000D01*
X97195582Y-79732009D01*
X97000968Y-79795244D01*
X96818644Y-79888143D01*
X96774077Y-79920523D01*
X96774077Y-79920524D01*
X97453554Y-80600000D01*
X97447339Y-80600000D01*
X97345606Y-80627259D01*
X97254394Y-80679920D01*
X97179920Y-80754394D01*
X97127259Y-80845606D01*
X97100000Y-80947339D01*
X97100000Y-80953553D01*
X96420524Y-80274077D01*
X96420523Y-80274077D01*
X96388143Y-80318644D01*
X96295244Y-80500968D01*
X96232009Y-80695582D01*
X96200000Y-80897682D01*
X92535500Y-80897682D01*
X92535500Y-80085080D01*
X92535500Y-79967783D01*
X92535500Y-79662682D01*
X100200000Y-79662682D01*
X100200000Y-79867317D01*
X100232009Y-80069417D01*
X100295244Y-80264031D01*
X100388141Y-80446350D01*
X100388147Y-80446359D01*
X100420523Y-80490921D01*
X100420524Y-80490922D01*
X101100000Y-79811446D01*
X101100000Y-79817661D01*
X101127259Y-79919394D01*
X101179920Y-80010606D01*
X101254394Y-80085080D01*
X101345606Y-80137741D01*
X101447339Y-80165000D01*
X101453553Y-80165000D01*
X100774076Y-80844474D01*
X100818650Y-80876859D01*
X101000968Y-80969755D01*
X101195582Y-81032990D01*
X101397683Y-81065000D01*
X101602317Y-81065000D01*
X101804417Y-81032990D01*
X101999031Y-80969755D01*
X102181349Y-80876859D01*
X102225921Y-80844474D01*
X101546447Y-80165000D01*
X101552661Y-80165000D01*
X101654394Y-80137741D01*
X101745606Y-80085080D01*
X101820080Y-80010606D01*
X101872741Y-79919394D01*
X101900000Y-79817661D01*
X101900000Y-79811447D01*
X102579474Y-80490921D01*
X102611859Y-80446349D01*
X102704755Y-80264031D01*
X102767990Y-80069417D01*
X102800000Y-79867317D01*
X102800000Y-79662682D01*
X102767990Y-79460582D01*
X102704755Y-79265968D01*
X102611859Y-79083650D01*
X102579474Y-79039077D01*
X102579474Y-79039076D01*
X101900000Y-79718551D01*
X101900000Y-79712339D01*
X101872741Y-79610606D01*
X101820080Y-79519394D01*
X101745606Y-79444920D01*
X101654394Y-79392259D01*
X101552661Y-79365000D01*
X101546446Y-79365000D01*
X102225922Y-78685524D01*
X102225921Y-78685523D01*
X102181359Y-78653147D01*
X102181350Y-78653141D01*
X101999031Y-78560244D01*
X101804417Y-78497009D01*
X101602317Y-78465000D01*
X101397683Y-78465000D01*
X101195582Y-78497009D01*
X101000968Y-78560244D01*
X100818644Y-78653143D01*
X100774077Y-78685523D01*
X100774077Y-78685524D01*
X101453554Y-79365000D01*
X101447339Y-79365000D01*
X101345606Y-79392259D01*
X101254394Y-79444920D01*
X101179920Y-79519394D01*
X101127259Y-79610606D01*
X101100000Y-79712339D01*
X101100000Y-79718553D01*
X100420524Y-79039077D01*
X100420523Y-79039077D01*
X100388143Y-79083644D01*
X100295244Y-79265968D01*
X100232009Y-79460582D01*
X100200000Y-79662682D01*
X92535500Y-79662682D01*
X92535499Y-78997129D01*
X92535498Y-78997123D01*
X92535497Y-78997116D01*
X92529091Y-78937517D01*
X92489223Y-78830626D01*
X92478797Y-78802671D01*
X92470716Y-78791876D01*
X92392546Y-78687454D01*
X92346718Y-78653147D01*
X92277800Y-78601554D01*
X92235929Y-78545620D01*
X92230945Y-78475929D01*
X92251791Y-78429404D01*
X92313277Y-78344777D01*
X92423004Y-78129427D01*
X92497691Y-77899564D01*
X92535500Y-77660851D01*
X92535500Y-77419148D01*
X92497691Y-77180435D01*
X92423002Y-76950568D01*
X92366409Y-76839500D01*
X92313277Y-76735223D01*
X92264203Y-76667678D01*
X92171219Y-76539695D01*
X92171215Y-76539690D01*
X92000309Y-76368784D01*
X91996598Y-76365614D01*
X91997752Y-76364263D01*
X91959755Y-76314989D01*
X91954173Y-76250001D01*
X94152704Y-76250001D01*
X94152899Y-76252486D01*
X94198718Y-76410198D01*
X94282314Y-76551552D01*
X94282321Y-76551561D01*
X94398438Y-76667678D01*
X94398447Y-76667685D01*
X94539803Y-76751282D01*
X94539806Y-76751283D01*
X94697504Y-76797099D01*
X94697510Y-76797100D01*
X94734350Y-76799999D01*
X94734366Y-76800000D01*
X94750000Y-76800000D01*
X95250000Y-76800000D01*
X95265634Y-76800000D01*
X95265649Y-76799999D01*
X95302489Y-76797100D01*
X95302495Y-76797099D01*
X95460193Y-76751283D01*
X95460196Y-76751282D01*
X95601552Y-76667685D01*
X95601561Y-76667678D01*
X95717678Y-76551561D01*
X95717685Y-76551552D01*
X95801281Y-76410198D01*
X95847100Y-76252486D01*
X95847295Y-76250001D01*
X95847295Y-76250000D01*
X95250000Y-76250000D01*
X95250000Y-76800000D01*
X94750000Y-76800000D01*
X94750000Y-76250000D01*
X94152705Y-76250000D01*
X94152704Y-76250001D01*
X91954173Y-76250001D01*
X91953776Y-76245376D01*
X91986381Y-76183581D01*
X91988695Y-76181261D01*
X91995138Y-76174972D01*
X92000311Y-76171214D01*
X92171214Y-76000311D01*
X92313277Y-75804777D01*
X92382864Y-75668204D01*
X92430839Y-75617409D01*
X92493349Y-75600500D01*
X94031051Y-75600500D01*
X94098090Y-75620185D01*
X94143845Y-75672989D01*
X94153789Y-75742147D01*
X94153033Y-75746777D01*
X94152900Y-75747503D01*
X94152704Y-75749998D01*
X94152705Y-75750000D01*
X95847295Y-75750000D01*
X95847295Y-75749998D01*
X95847100Y-75747513D01*
X95801281Y-75589801D01*
X95717685Y-75448447D01*
X95717678Y-75448438D01*
X95657274Y-75388034D01*
X95623789Y-75326711D01*
X95628773Y-75257019D01*
X95657272Y-75212673D01*
X95718081Y-75151865D01*
X95801744Y-75010398D01*
X95847598Y-74852569D01*
X95850500Y-74815694D01*
X95850500Y-74384306D01*
X95847598Y-74347431D01*
X95847536Y-74347219D01*
X95801745Y-74189606D01*
X95801744Y-74189603D01*
X95801744Y-74189602D01*
X95718081Y-74048135D01*
X95718079Y-74048133D01*
X95718076Y-74048129D01*
X95601870Y-73931923D01*
X95601862Y-73931917D01*
X95460396Y-73848255D01*
X95460393Y-73848254D01*
X95302573Y-73802402D01*
X95302567Y-73802401D01*
X95265701Y-73799500D01*
X95265694Y-73799500D01*
X94734306Y-73799500D01*
X94734298Y-73799500D01*
X94697432Y-73802401D01*
X94697426Y-73802402D01*
X94539606Y-73848254D01*
X94539603Y-73848255D01*
X94398137Y-73931917D01*
X94398129Y-73931923D01*
X94281923Y-74048129D01*
X94281917Y-74048137D01*
X94198255Y-74189603D01*
X94198254Y-74189606D01*
X94163249Y-74310095D01*
X94125643Y-74368981D01*
X94062171Y-74398187D01*
X94044173Y-74399500D01*
X92493349Y-74399500D01*
X92426310Y-74379815D01*
X92382864Y-74331795D01*
X92313277Y-74195223D01*
X92255477Y-74115668D01*
X92171219Y-73999695D01*
X92171215Y-73999690D01*
X92000309Y-73828784D01*
X92000304Y-73828780D01*
X91804780Y-73686725D01*
X91804779Y-73686724D01*
X91804777Y-73686723D01*
X91737528Y-73652457D01*
X91589431Y-73576997D01*
X91385411Y-73510707D01*
X91359564Y-73502308D01*
X91120851Y-73464500D01*
X91120846Y-73464500D01*
X90879154Y-73464500D01*
X90879149Y-73464500D01*
X90640434Y-73502309D01*
X90640431Y-73502309D01*
X90494658Y-73549674D01*
X90424817Y-73551669D01*
X90368659Y-73519424D01*
X90246883Y-73397648D01*
X96199500Y-73397648D01*
X96199500Y-73602351D01*
X96231522Y-73804534D01*
X96294781Y-73999223D01*
X96387715Y-74181613D01*
X96508028Y-74347213D01*
X96652786Y-74491971D01*
X96777595Y-74582648D01*
X96818390Y-74612287D01*
X96934607Y-74671503D01*
X97000776Y-74705218D01*
X97000778Y-74705218D01*
X97000781Y-74705220D01*
X97105137Y-74739127D01*
X97195465Y-74768477D01*
X97296557Y-74784488D01*
X97397648Y-74800500D01*
X97397649Y-74800500D01*
X97602351Y-74800500D01*
X97602352Y-74800500D01*
X97804534Y-74768477D01*
X97999219Y-74705220D01*
X98181610Y-74612287D01*
X98274590Y-74544732D01*
X98347213Y-74491971D01*
X98347215Y-74491968D01*
X98347219Y-74491966D01*
X98491966Y-74347219D01*
X98491968Y-74347215D01*
X98491971Y-74347213D01*
X98606480Y-74189603D01*
X98612287Y-74181610D01*
X98619117Y-74168204D01*
X98667091Y-74117409D01*
X98729602Y-74100500D01*
X100014903Y-74100500D01*
X100044343Y-74109144D01*
X100074330Y-74115668D01*
X100079345Y-74119422D01*
X100081942Y-74120185D01*
X100102584Y-74136819D01*
X100205922Y-74240157D01*
X100239407Y-74301480D01*
X100236173Y-74366155D01*
X100231522Y-74380468D01*
X100223680Y-74429982D01*
X100199500Y-74582648D01*
X100199500Y-74787352D01*
X100203878Y-74814995D01*
X100231522Y-74989534D01*
X100294781Y-75184223D01*
X100337510Y-75268081D01*
X100380138Y-75351744D01*
X100387715Y-75366613D01*
X100508028Y-75532213D01*
X100652786Y-75676971D01*
X100753304Y-75750000D01*
X100818390Y-75797287D01*
X100934607Y-75856503D01*
X101000776Y-75890218D01*
X101000778Y-75890218D01*
X101000781Y-75890220D01*
X101105137Y-75924127D01*
X101195465Y-75953477D01*
X101296557Y-75969488D01*
X101397648Y-75985500D01*
X101397649Y-75985500D01*
X101602351Y-75985500D01*
X101602352Y-75985500D01*
X101804534Y-75953477D01*
X101999219Y-75890220D01*
X102181610Y-75797287D01*
X102274590Y-75729732D01*
X102347213Y-75676971D01*
X102347215Y-75676968D01*
X102347219Y-75676966D01*
X102491966Y-75532219D01*
X102491968Y-75532215D01*
X102491971Y-75532213D01*
X102552836Y-75448438D01*
X102612287Y-75366610D01*
X102705220Y-75184219D01*
X102768477Y-74989534D01*
X102800500Y-74787352D01*
X102800500Y-74582648D01*
X102776320Y-74429982D01*
X102768477Y-74380465D01*
X102708288Y-74195223D01*
X102705220Y-74185781D01*
X102705218Y-74185778D01*
X102705218Y-74185776D01*
X102659219Y-74095500D01*
X102612287Y-74003390D01*
X102604556Y-73992749D01*
X102491971Y-73837786D01*
X102347213Y-73693028D01*
X102181610Y-73572712D01*
X102168200Y-73565879D01*
X102117406Y-73517903D01*
X102100500Y-73455397D01*
X102100500Y-70341431D01*
X102120185Y-70274392D01*
X102172989Y-70228637D01*
X102205095Y-70218960D01*
X102254785Y-70211090D01*
X102494379Y-70133241D01*
X102718845Y-70018870D01*
X102922656Y-69870793D01*
X103100793Y-69692656D01*
X103248870Y-69488845D01*
X103363241Y-69264379D01*
X103441090Y-69024785D01*
X103480500Y-68775962D01*
X103480500Y-68524038D01*
X103441090Y-68275215D01*
X103363241Y-68035621D01*
X103363239Y-68035618D01*
X103363239Y-68035616D01*
X103321747Y-67954184D01*
X103248870Y-67811155D01*
X103229952Y-67785117D01*
X103100798Y-67607350D01*
X103100794Y-67607345D01*
X102922654Y-67429205D01*
X102922649Y-67429201D01*
X102718848Y-67281132D01*
X102718847Y-67281131D01*
X102718845Y-67281130D01*
X102648747Y-67245413D01*
X102494383Y-67166760D01*
X102254785Y-67088910D01*
X102005962Y-67049500D01*
X101754038Y-67049500D01*
X101629626Y-67069205D01*
X101505214Y-67088910D01*
X101265616Y-67166760D01*
X101041151Y-67281132D01*
X100837350Y-67429201D01*
X100837345Y-67429205D01*
X100659205Y-67607345D01*
X100659201Y-67607350D01*
X100511132Y-67811151D01*
X100396760Y-68035616D01*
X100318910Y-68275214D01*
X100279500Y-68524038D01*
X100279500Y-68775961D01*
X100318910Y-69024785D01*
X100396760Y-69264383D01*
X100511132Y-69488848D01*
X100659201Y-69692649D01*
X100659205Y-69692654D01*
X100659207Y-69692656D01*
X100837344Y-69870793D01*
X100848382Y-69878812D01*
X100891049Y-69934138D01*
X100899500Y-69979132D01*
X100899500Y-72935902D01*
X100879815Y-73002941D01*
X100827011Y-73048696D01*
X100757853Y-73058640D01*
X100709099Y-73040625D01*
X100697517Y-73033281D01*
X100683716Y-73019480D01*
X100596904Y-72969360D01*
X100546785Y-72940423D01*
X100394057Y-72899499D01*
X100235943Y-72899499D01*
X100228347Y-72899499D01*
X100228331Y-72899500D01*
X98729602Y-72899500D01*
X98662563Y-72879815D01*
X98619117Y-72831795D01*
X98612284Y-72818385D01*
X98491971Y-72652786D01*
X98347213Y-72508028D01*
X98181613Y-72387715D01*
X98181612Y-72387714D01*
X98181610Y-72387713D01*
X98124653Y-72358691D01*
X97999223Y-72294781D01*
X97804534Y-72231522D01*
X97629995Y-72203878D01*
X97602352Y-72199500D01*
X97397648Y-72199500D01*
X97373329Y-72203351D01*
X97195465Y-72231522D01*
X97000776Y-72294781D01*
X96818386Y-72387715D01*
X96652786Y-72508028D01*
X96508028Y-72652786D01*
X96387715Y-72818386D01*
X96294781Y-73000776D01*
X96231522Y-73195465D01*
X96199500Y-73397648D01*
X90246883Y-73397648D01*
X85137590Y-68288355D01*
X85137588Y-68288352D01*
X85018717Y-68169481D01*
X85018716Y-68169480D01*
X84931904Y-68119360D01*
X84931904Y-68119359D01*
X84931900Y-68119358D01*
X84881785Y-68090423D01*
X84729057Y-68049499D01*
X84570943Y-68049499D01*
X84563347Y-68049499D01*
X84563331Y-68049500D01*
X83126300Y-68049500D01*
X83059261Y-68029815D01*
X83015815Y-67981795D01*
X82928870Y-67811155D01*
X82909952Y-67785117D01*
X82780798Y-67607350D01*
X82780794Y-67607345D01*
X82602654Y-67429205D01*
X82602649Y-67429201D01*
X82398848Y-67281132D01*
X82398847Y-67281131D01*
X82398845Y-67281130D01*
X82328747Y-67245413D01*
X82174383Y-67166760D01*
X81934785Y-67088910D01*
X81685962Y-67049500D01*
X81434038Y-67049500D01*
X81309626Y-67069205D01*
X81185214Y-67088910D01*
X80945616Y-67166760D01*
X80721151Y-67281132D01*
X80517350Y-67429201D01*
X80517345Y-67429205D01*
X80339205Y-67607345D01*
X80339201Y-67607350D01*
X80191132Y-67811151D01*
X80076760Y-68035616D01*
X79998910Y-68275214D01*
X79959500Y-68524038D01*
X78500500Y-68524038D01*
X78500500Y-65124500D01*
X78520185Y-65057461D01*
X78572989Y-65011706D01*
X78624500Y-65000500D01*
X104375500Y-65000500D01*
X104442539Y-65020185D01*
G37*
G04 #@! TD.AperFunction*
M02*
