%TF.GenerationSoftware,KiCad,Pcbnew,9.0.4*%
%TF.CreationDate,2025-10-14T04:27:38+05:30*%
%TF.ProjectId,Buck converter,4275636b-2063-46f6-9e76-65727465722e,rev?*%
%TF.SameCoordinates,Original*%
%TF.FileFunction,Drillmap*%
%TF.FilePolarity,Positive*%
%FSLAX45Y45*%
G04 Gerber Fmt 4.5, Leading zero omitted, Abs format (unit mm)*
G04 Created by KiCad (PCBNEW 9.0.4) date 2025-10-14 04:27:38*
%MOMM*%
%LPD*%
G01*
G04 APERTURE LIST*
%ADD10C,0.038100*%
%ADD11C,0.200000*%
G04 APERTURE END LIST*
D10*
X10500000Y-6450000D02*
X7800000Y-6450000D01*
X10500000Y-8500000D02*
X10500000Y-6450000D01*
X7800000Y-8500000D02*
X10500000Y-8500000D01*
X7800000Y-6450000D02*
X7800000Y-8500000D01*
D11*
X8058872Y-8813389D02*
X8058872Y-8613389D01*
X8058872Y-8613389D02*
X8106491Y-8613389D01*
X8106491Y-8613389D02*
X8135062Y-8622913D01*
X8135062Y-8622913D02*
X8154110Y-8641960D01*
X8154110Y-8641960D02*
X8163634Y-8661008D01*
X8163634Y-8661008D02*
X8173157Y-8699103D01*
X8173157Y-8699103D02*
X8173157Y-8727675D01*
X8173157Y-8727675D02*
X8163634Y-8765770D01*
X8163634Y-8765770D02*
X8154110Y-8784817D01*
X8154110Y-8784817D02*
X8135062Y-8803865D01*
X8135062Y-8803865D02*
X8106491Y-8813389D01*
X8106491Y-8813389D02*
X8058872Y-8813389D01*
X8258872Y-8813389D02*
X8258872Y-8680055D01*
X8258872Y-8718151D02*
X8268396Y-8699103D01*
X8268396Y-8699103D02*
X8277919Y-8689579D01*
X8277919Y-8689579D02*
X8296967Y-8680055D01*
X8296967Y-8680055D02*
X8316015Y-8680055D01*
X8382681Y-8813389D02*
X8382681Y-8680055D01*
X8382681Y-8613389D02*
X8373157Y-8622913D01*
X8373157Y-8622913D02*
X8382681Y-8632436D01*
X8382681Y-8632436D02*
X8392205Y-8622913D01*
X8392205Y-8622913D02*
X8382681Y-8613389D01*
X8382681Y-8613389D02*
X8382681Y-8632436D01*
X8506491Y-8813389D02*
X8487443Y-8803865D01*
X8487443Y-8803865D02*
X8477919Y-8784817D01*
X8477919Y-8784817D02*
X8477919Y-8613389D01*
X8611253Y-8813389D02*
X8592205Y-8803865D01*
X8592205Y-8803865D02*
X8582681Y-8784817D01*
X8582681Y-8784817D02*
X8582681Y-8613389D01*
X8839824Y-8813389D02*
X8839824Y-8613389D01*
X8839824Y-8613389D02*
X8906491Y-8756246D01*
X8906491Y-8756246D02*
X8973158Y-8613389D01*
X8973158Y-8613389D02*
X8973158Y-8813389D01*
X9154110Y-8813389D02*
X9154110Y-8708627D01*
X9154110Y-8708627D02*
X9144586Y-8689579D01*
X9144586Y-8689579D02*
X9125539Y-8680055D01*
X9125539Y-8680055D02*
X9087443Y-8680055D01*
X9087443Y-8680055D02*
X9068396Y-8689579D01*
X9154110Y-8803865D02*
X9135062Y-8813389D01*
X9135062Y-8813389D02*
X9087443Y-8813389D01*
X9087443Y-8813389D02*
X9068396Y-8803865D01*
X9068396Y-8803865D02*
X9058872Y-8784817D01*
X9058872Y-8784817D02*
X9058872Y-8765770D01*
X9058872Y-8765770D02*
X9068396Y-8746722D01*
X9068396Y-8746722D02*
X9087443Y-8737198D01*
X9087443Y-8737198D02*
X9135062Y-8737198D01*
X9135062Y-8737198D02*
X9154110Y-8727675D01*
X9249348Y-8680055D02*
X9249348Y-8880055D01*
X9249348Y-8689579D02*
X9268396Y-8680055D01*
X9268396Y-8680055D02*
X9306491Y-8680055D01*
X9306491Y-8680055D02*
X9325539Y-8689579D01*
X9325539Y-8689579D02*
X9335062Y-8699103D01*
X9335062Y-8699103D02*
X9344586Y-8718151D01*
X9344586Y-8718151D02*
X9344586Y-8775294D01*
X9344586Y-8775294D02*
X9335062Y-8794341D01*
X9335062Y-8794341D02*
X9325539Y-8803865D01*
X9325539Y-8803865D02*
X9306491Y-8813389D01*
X9306491Y-8813389D02*
X9268396Y-8813389D01*
X9268396Y-8813389D02*
X9249348Y-8803865D01*
X9430300Y-8794341D02*
X9439824Y-8803865D01*
X9439824Y-8803865D02*
X9430300Y-8813389D01*
X9430300Y-8813389D02*
X9420777Y-8803865D01*
X9420777Y-8803865D02*
X9430300Y-8794341D01*
X9430300Y-8794341D02*
X9430300Y-8813389D01*
X9430300Y-8689579D02*
X9439824Y-8699103D01*
X9439824Y-8699103D02*
X9430300Y-8708627D01*
X9430300Y-8708627D02*
X9420777Y-8699103D01*
X9420777Y-8699103D02*
X9430300Y-8689579D01*
X9430300Y-8689579D02*
X9430300Y-8708627D01*
M02*
